<?xml version="1.0" encoding="UTF-8"?>
<svg xmlns="http://www.w3.org/2000/svg" xmlns:xlink="http://www.w3.org/1999/xlink" height="623.4" preserveAspectRatio="xMidYMid meet" version="1.1" viewBox="-0.4 -0.4 560.9 623.4" width="560.9" zoomAndPan="magnify">
 <defs>
  <clipPath id="clip1">
   <path d="m81 92h406v530.99h-406z"/>
  </clipPath>
  <clipPath id="clip2">
   <path d="m395 371h165.59v161h-165.59z"/>
  </clipPath>
 </defs>
 <g id="surface1">
  <g clip-path="url(#clip1)" id="change1_1">
   <path d="m84.168 580.2c1.172 5.48 6.312 18.57 7.18 20.37 6.261 13.03 16.742 24.49 29.202 22.1 18.79-3.6 23.47-36.04 39.98-45 14.74-8 28.35 8.03 42.98 5.05 14.86-3.03 13.31-24.78 24.24-33.45 11.07-8.77 41.52 12.5 42.14-16.35 0.15-7.02-2.68-13.11-2.53-20.02 0.1-4.97 5.84-10.19 5.06-14.31-0.88-4.61-6.77-7.16-9.54-8.7-9.76-5.37-21.46-8.26-32.22-4.22-10.35 3.9-17.32 17.15-27.82 20.84-13.02 4.59-26.72-3.62-40.04-1.17-14.04 2.57-24.91 14.17-38.06 20.67-9.73 4.81-19.82 3.63-29.549 7.81-16.418 7.05-15.554 25.24-11.023 46.38zm321.09-482.6c14.81-6.777 27.78-9.589 34.1 6.005 3.75 9.24 3.68 19.41 7.88 28.59 5.68 12.39 14.83 21.97 17.76 35.68 2.77 13-2.05 27.51 2.25 40 3.45 10.05 13.49 15.57 17.08 25.46 3.73 10.28 2.56 22.24-0.54 32.53-0.89 2.93-2.26 9.07-5.5 10.43-2.89 1.22-7.08-3.94-10.65-3.5-4.96 0.6-9.11 4.07-14.15 4.67-20.73 2.48-7.83-30.13-14.98-40.21-7.05-9.96-22.52-6.08-25.84-20.56-3.27-14.24 7.17-29.52 0.3-43.33-7.7-15.48-31.31-16.67-35.35-34.99-2.67-12.15 4.74-23.81 13.59-31.44 1.23-1.06 10.22-7.581 14.05-9.335" fill="#967298" fill-rule="evenodd"/>
  </g>
  <g id="change2_2"><path d="m314.59 497.69c-19.71 1.15-40.39 4.92-62.72 11.54-0.39 0.01-0.82 0.01-1.3-0.01-3.73-0.13-7.49-0.81-10.99-1.52-10.24-2.08-20.26-3.49-30.27 2.2-0.36 0.21-0.49 0.67-0.28 1.04 0.2 0.36 0.67 0.49 1.04 0.28 9.55-5.42 19.26-4.05 29.2-2.02 2.65 0.53 5.44 1.05 8.27 1.34-10.59 3.28-21.56 7.19-32.98 11.76-0.22-0.09-0.48-0.09-0.7 0.05-0.27 0.17-0.54 0.35-0.79 0.56-1.35 0.54-2.7 1.09-4.06 1.65-0.17 0.05-0.31 0.09-0.37 0.1-4.24 0.19-8.43-0.48-11.59-1.1-4.42-0.85-8.94-2.38-13.32-3.86-8.21-2.77-16.7-5.63-25.38-4.5-0.42 0.06-0.71 0.44-0.66 0.86 0.06 0.41 0.43 0.71 0.86 0.65 8.33-1.09 16.65 1.72 24.69 4.44 4.42 1.49 9 3.03 13.52 3.91 2.37 0.46 5.3 0.95 8.42 1.1-7.97 3.37-16.16 7.05-24.59 11.04-0.11 0.01-0.21 0.05-0.31 0.11-0.06 0.04-0.12 0.08-0.17 0.12-1.26 0.59-2.52 1.19-3.79 1.8-0.45 0.03-1.36 0.4-3.49 1.26-0.83 0.34-1.83 0.75-2.13 0.85-3.52-0.02-7.3-0.47-11.24-1.34-4.32-0.96-8.69-2.51-12.93-4-9.86-3.48-20.07-7.08-30.8-3.9-0.41 0.12-0.64 0.54-0.52 0.94 0.13 0.41 0.55 0.64 0.95 0.52 10.27-3.04 20.23 0.48 29.87 3.88 4.27 1.51 8.69 3.07 13.1 4.04 3.41 0.76 6.71 1.21 9.84 1.34-1.01 0.5-2.02 1-3.03 1.51-10.35 5.17-20.62 10.58-30.22 15.78-3.77 1.06-6.67 0.71-9.23 0.39-0.58-0.07-1.13-0.14-1.67-0.18-5.48-0.5-10.91-2.12-16.16-3.69-5.38-1.6-10.949-3.27-16.648-3.75-0.418-0.04-0.789 0.27-0.824 0.69-0.036 0.42 0.273 0.79 0.695 0.82 5.543 0.48 11.037 2.12 16.347 3.7 5.32 1.59 10.82 3.23 16.45 3.74 0.53 0.05 1.07 0.12 1.63 0.19 1.54 0.19 3.3 0.41 5.35 0.3-7.89 4.3-15.24 8.41-21.72 12.05-0.48 0.27-1.4 0.83-2.56 1.55-2.83 1.73-10.196 6.24-11.786 6.45-0.207-0.14-0.477-0.19-0.727-0.08-0.39 0.15-0.578 0.6-0.422 0.99 0.11 0.27 0.325 0.47 0.61 0.56 1.148 0.37 4.215-1.17 13.125-6.63 1.13-0.69 2.03-1.25 2.5-1.51 8.75-4.92 19.11-10.69 30.2-16.64-2.25 2.72-5 6.41-5.35 9.17-0.8 6.43-1.91 11.86-3.41 16.61-2.39 7.57-6.23 14.61-11.12 20.36-0.62 0.73-1.44 1.39-2.3 2.08-1.04 0.84-2.11 1.7-2.86 2.74-0.24 0.34-0.16 0.81 0.18 1.06 0.14 0.1 0.29 0.14 0.44 0.14 0.24 0 0.48-0.11 0.63-0.32 0.61-0.86 1.56-1.62 2.57-2.43 0.88-0.71 1.79-1.44 2.5-2.28 5.02-5.9 8.97-13.13 11.41-20.89 1.53-4.84 2.66-10.36 3.48-16.89 0.37-2.99 4.55-7.87 6.56-10.21l0.32-0.38c0.12-0.14 0.18-0.31 0.18-0.49 7.3-3.88 14.88-7.83 22.51-11.64 3.43-1.72 6.83-3.39 10.19-5-2.45 3.3-4.26 7.88-6.01 12.35-1.61 4.07-3.12 7.93-5.06 10.77-2.43 3.57-4.52 6.21-6.56 8.33-0.66 0.68-1.38 1.38-2.23 2.12-0.12 0.11-0.34 0.26-0.56 0.4-0.63 0.42-1.12 0.75-0.89 1.37 0.12 0.33 0.55 0.54 0.9 0.5 0.28-0.03 0.49-0.21 0.6-0.45 0.07-0.04 0.15-0.1 0.23-0.15 0.28-0.19 0.57-0.38 0.73-0.53 0.88-0.77 1.63-1.49 2.32-2.2 2.1-2.18 4.24-4.9 6.72-8.53 2.03-2.99 3.65-7.1 5.21-11.08 2.36-5.98 4.8-12.17 8.66-14.84 9.87-4.68 19.41-8.93 28.65-12.75 0.29-0.09 0.67-0.21 1.16-0.37-2.61 3.96-4.37 10.19-6.09 16.27-1.26 4.44-2.44 8.62-3.84 11.46-1.61 3.24-3.78 6.34-6.28 8.97-0.85 0.9-1.66 1.56-2.45 1.99-0.14 0.09-0.34 0.23-0.56 0.39-0.04 0.04-0.09 0.08-0.14 0.12h-0.02c-0.41-0.09-0.81 0.17-0.9 0.59-0.13 0.61 0.25 0.9 0.37 0.97 0.55 0.36 1.07-0.05 1.62-0.46 0.14-0.11 0.27-0.22 0.37-0.27 0.93-0.52 1.85-1.27 2.82-2.28 2.6-2.74 4.86-5.97 6.53-9.35 1.47-2.96 2.67-7.21 3.94-11.71 1.86-6.57 3.93-13.89 7.04-17.34 0.2-0.04 0.39-0.16 0.5-0.35 0.05-0.08 0.08-0.17 0.1-0.25 0.05-0.05 0.11-0.1 0.17-0.15 12.49-5.04 24.44-9.29 35.95-12.8-2.95 2.73-5.29 6.62-7.56 10.42-0.7 1.15-1.39 2.29-2.08 3.39-3.25 5.11-7.19 10.1-12.38 15.71-3.65 3.93-8.11 8.32-9.08 8.7-0.36 0.01-0.67 0.28-0.73 0.65-0.06 0.41 0.22 0.8 0.64 0.86 0.38 0.07 1.55 0.24 10.29-9.17 5.25-5.68 9.24-10.74 12.55-15.94 0.7-1.1 1.39-2.25 2.09-3.42 2.88-4.79 5.86-9.75 9.94-12.02 0.75-0.15 0.95-0.38 1.06-0.5 0.04-0.04 0.06-0.07 0.09-0.11 21.32-6.16 41.13-9.69 60.04-10.79 0.42-0.02 0.74-0.38 0.71-0.8-0.02-0.42-0.41-0.75-0.8-0.72zm-224.44-104.87c4.715 1.67 7.922 4.98 11.322 8.49 2.08 2.14 4.23 4.36 6.87 6.4 4.82 3.71 9.79 7.4 14.96 11.1-1.06-0.13-2.12-0.15-3.17-0.18-0.49-0.01-0.97-0.02-1.44-0.05-4.6-0.22-9.21-1.28-13.11-2.28-0.61-0.16-1.58-0.57-2.6-1.01-2.72-1.17-5.796-2.48-7.644-1.72-0.387 0.16-0.574 0.61-0.414 0.99 0.16 0.39 0.601 0.58 0.992 0.42 1.258-0.52 4.386 0.82 6.466 1.71 1.12 0.48 2.1 0.9 2.82 1.08 3.97 1.03 8.68 2.1 13.42 2.33 0.48 0.03 0.97 0.04 1.47 0.05 1.95 0.05 3.96 0.11 5.69 0.83 0.19 0.09 0.4 0.08 0.58 0.01 9.43 6.66 19.49 13.35 30.38 20.21-3.94 0.07-7.45-0.76-11.12-1.64-2.05-0.49-4.18-1-6.48-1.38-2.34-0.38-4.63-0.66-6.83-0.83l-0.18-0.02c-0.76-0.06-1.54-0.12-2.34-0.09-0.28 0.01-0.54 0.13-0.8 0.25-0.06-0.03-0.13-0.05-0.2-0.06-0.41-0.06-0.8 0.22-0.87 0.64-0.08 0.53 0.21 0.81 0.34 0.9 0.46 0.34 0.97 0.1 1.35-0.08 0.1-0.05 0.2-0.11 0.24-0.13 0.7-0.03 1.41 0.03 2.16 0.09l0.18 0.01c2.16 0.18 4.41 0.45 6.7 0.83 2.25 0.36 4.34 0.87 6.37 1.35 4.44 1.06 8.62 2.07 13.7 1.55h0.01c10.36 6.41 20.72 11.91 31 16.67-1.68 0.03-3.4 0.1-4.84 0.16l-1.08 0.04c-4.01 0.16-8.06-0.58-11.99-1.29-0.63-0.12-1.25-0.23-1.88-0.34-4.78-0.85-6.89-1.26-7.3-1.38-0.11-0.05-0.23-0.08-0.34-0.07-0.42 0-0.76 0.33-0.76 0.75-0.01 0.76-0.01 0.76 8.14 2.2 0.62 0.11 1.24 0.22 1.87 0.34 4.01 0.73 8.15 1.49 12.32 1.32l1.09-0.05c2.46-0.1 5.74-0.24 8.16-0.13 31.25 13.99 61.59 21.25 88.42 26.5 0.04 0.01 0.1 0.01 0.15 0.01 0.35 0 0.67-0.25 0.74-0.62 0.08-0.41-0.19-0.81-0.6-0.89-26.48-5.17-56.39-12.32-87.18-25.99-0.11-0.27-0.36-0.47-0.66-0.49-0.16-0.01-0.33-0.02-0.5-0.03-2.87-1.29-5.74-2.63-8.62-4.03 0.01-0.2-0.04-0.4-0.18-0.56-3.95-4.66-7.81-11.6-11.54-18.31-4.08-7.34-8.3-14.93-12.79-19.86-0.28-0.31-0.76-0.33-1.08-0.05-0.31 0.28-0.33 0.76-0.05 1.08 4.37 4.8 8.55 12.31 12.59 19.57 3.32 5.96 6.73 12.1 10.26 16.74-8.05-4.03-16.13-8.54-24.21-13.61-0.76-0.49-1.53-0.97-2.29-1.45 0.07-0.26 0-0.55-0.2-0.75-1.51-1.46-2.8-3.69-4.06-5.85-0.67-1.15-1.36-2.34-2.07-3.38-2.6-3.84-4.94-8.12-7.21-12.26-2.88-5.27-5.86-10.71-9.42-15.34-0.26-0.33-0.74-0.39-1.07-0.13-0.34 0.25-0.4 0.73-0.14 1.06 3.49 4.54 6.44 9.93 9.29 15.14 2.29 4.17 4.65 8.49 7.29 12.38 0.68 1 1.33 2.12 2.02 3.3 0.73 1.27 1.48 2.57 2.3 3.74-10.91-6.97-20.97-13.8-30.39-20.62 0.2-0.26 0.21-0.63 0-0.91-1.96-2.71-3.97-5.98-6.13-10.01-2.13-3.98-4-8.6-5.82-13.06-3.28-8.08-6.67-16.43-11.882-22.1-0.285-0.31-0.766-0.33-1.074-0.05-0.313 0.29-0.332 0.77-0.047 1.08 5.023 5.47 8.363 13.69 11.593 21.64 1.83 4.5 3.72 9.16 5.89 13.21 1.74 3.25 3.38 6.02 5 8.41-3.56-2.61-7.03-5.21-10.42-7.82-2.56-1.97-4.66-4.15-6.71-6.25-3.521-3.64-6.853-7.08-11.904-8.86-0.398-0.14-0.832 0.07-0.972 0.46-0.141 0.4 0.066 0.83 0.464 0.97zm19.712 93.09s0.01-0.01 0.02-0.01c2.37 0.72 4.74 1.42 7.1 2.08 31.41 8.78 63.68 10.64 95.63 10.64 11.89 0 23.73-0.26 35.46-0.51 3.48-0.08 6.96-0.15 10.44-0.22 6.33-0.13 12.85 0.09 19.14 0.31 10.36 0.36 21.06 0.73 31.5-0.42 0.42-0.05 0.72-0.42 0.67-0.84-0.04-0.42-0.43-0.72-0.84-0.67-10.32 1.13-20.98 0.77-31.27 0.41-6.32-0.22-12.86-0.44-19.23-0.32-3.48 0.07-6.96 0.15-10.44 0.23-43.15 0.94-87.77 1.91-130.65-10.08-20.636-5.77-41.925-14.02-63.285-24.51-7.546-3.71-13.664-7.11-19.242-10.68-1.551-1-3.582-2.33-5.515-3.85-0.332-0.26-0.809-0.2-1.067 0.13-0.261 0.33-0.203 0.81 0.129 1.07 1.985 1.56 4.051 2.92 5.633 3.93 5.625 3.61 11.789 7.02 19.391 10.76 5.199 2.56 10.394 4.98 15.578 7.26-1.012 0.1-2.02 0.18-2.981 0.24-5.015 0.3-9.625 0.22-14.09-0.25-14.402-1.52-27.519-6.23-40.109-14.38-0.352-0.23-0.824-0.13-1.055 0.22-0.226 0.36-0.125 0.83 0.227 1.06 12.793 8.29 26.133 13.07 40.777 14.61 2.774 0.3 5.602 0.44 8.539 0.44 1.883 0 3.813-0.06 5.801-0.17 1.488-0.09 3.078-0.21 4.66-0.43 0.223-0.03 0.403-0.16 0.52-0.34 12.129 5.26 24.187 9.77 36.059 13.5-1.77 0.56-3.9 1.2-5.46 1.65-4.404 1.27-9.162 2.32-14.545 3.2-15.511 2.57-30.355 2.39-46.761 1.93-0.438 0.01-0.774 0.32-0.785 0.74-0.012 0.42 0.32 0.77 0.742 0.78 5.48 0.16 10.785 0.28 16 0.28 10.484 0 20.605-0.5 31.054-2.22 5.442-0.9 10.254-1.96 14.715-3.25 1.79-0.52 5.41-1.6 7.54-2.32zm447.14-397.88c-0.36-0.226-0.82-0.121-1.05 0.235-3.52 5.574-9.14 9.769-14.57 13.828-3.1 2.31-6.29 4.7-9.04 7.3-1.87 1.77-3.5 3.44-4.93 5.05 1.5-3.59 3.01-7.1 4.53-10.55 1.22-2.76 2.61-5.097 3.97-7.355 2.33-3.894 4.54-7.57 5.41-12.762 0.07-0.414-0.2-0.808-0.62-0.878-0.42-0.075-0.81 0.207-0.88 0.625-0.83 4.906-2.96 8.464-5.22 12.234-1.37 2.297-2.8 4.676-4.05 7.516-2.15 4.87-4.27 9.87-6.38 15.03-0.02-0.73-0.06-1.46-0.1-2.18-0.03-0.49-0.06-0.98-0.08-1.46-0.19-4.63 0.21-9.34 0.63-13.34 0.07-0.64 0.29-1.652 0.53-2.73 0.61-2.789 1.31-5.949 0.65-7.641-0.16-0.394-0.6-0.586-0.99-0.433-0.39 0.156-0.58 0.593-0.43 0.988 0.49 1.258-0.21 4.437-0.72 6.758-0.26 1.168-0.48 2.178-0.55 2.898-0.43 4.05-0.84 8.84-0.64 13.57 0.02 0.48 0.05 0.98 0.08 1.48 0.11 1.96 0.23 3.99-0.16 5.82-0.04 0.18-0.01 0.36 0.06 0.51-3.93 9.83-7.85 20.26-11.81 31.48-0.23-3.57 0.07-6.87 0.4-10.33 0.19-2.09 0.39-4.26 0.48-6.58 0.09-2.37 0.12-4.68 0.07-6.88v-0.18c-0.02-0.75-0.03-1.53-0.11-2.32-0.03-0.25-0.14-0.5-0.25-0.75 0-0.01-0.01-0.02-0.02-0.03 0.03-0.06 0.04-0.13 0.05-0.2 0.03-0.43-0.3-0.79-0.71-0.81-0.32-0.03-0.62 0.11-0.79 0.36-0.31 0.45-0.09 0.92 0.08 1.31 0.05 0.1 0.11 0.21 0.12 0.28 0.08 0.72 0.09 1.47 0.11 2.19v0.19c0.04 2.16 0.02 4.44-0.07 6.77-0.09 2.29-0.29 4.44-0.48 6.51-0.42 4.51-0.81 8.77-0.06 13.73 0 0.02 0.01 0.05 0.01 0.07-3.65 10.58-6.7 21.07-9.25 31.42-0.13-1.25-0.26-2.48-0.37-3.56l-0.12-1.06c-0.42-3.99-0.21-8.13 0-12.13l0.1-1.9c0.3-6.03 0.4-7.23 0.43-7.46 0.03-0.1 0.04-0.21 0.02-0.31-0.05-0.42-0.44-0.71-0.85-0.66-0.72 0.1-0.72 0.1-1.12 8.36l-0.1 1.89c-0.21 4.06-0.43 8.26 0.01 12.37l0.11 1.06c0.27 2.47 0.62 5.75 0.73 8.19-7.62 32.61-10.49 63.6-12.17 90.87-0.03 0.42 0.29 0.78 0.71 0.81h0.05c0.4 0 0.74-0.31 0.76-0.72 1.67-26.93 4.48-57.5 11.91-89.66 0.19-0.14 0.3-0.37 0.29-0.61 0-0.18 0-0.36-0.01-0.54 0.7-3 1.44-6.01 2.22-9.02 0.16-0.05 0.3-0.15 0.41-0.3 3.03-4.43 7.7-9.01 12.22-13.44 4.94-4.86 10.07-9.88 13.26-14.88 0.23-0.36 0.12-0.82-0.23-1.05-0.36-0.23-0.83-0.13-1.05 0.23-3.11 4.86-8.16 9.82-13.05 14.61-3.76 3.69-7.62 7.47-10.6 11.23 2.23-8.24 4.79-16.57 7.72-24.94 0.28-0.79 0.56-1.57 0.84-2.35 0.22-0.04 0.43-0.17 0.55-0.39 0.93-1.65 2.42-3.17 3.87-4.64 0.77-0.79 1.58-1.61 2.27-2.44 2.54-2.99 5.43-5.78 8.22-8.48 3.56-3.44 7.23-6.99 10.28-11.04 0.26-0.34 0.19-0.82-0.15-1.07s-0.81-0.18-1.07 0.15c-2.97 3.96-6.6 7.47-10.12 10.86-2.81 2.73-5.73 5.54-8.32 8.6-0.66 0.78-1.41 1.54-2.2 2.35-0.62 0.64-1.26 1.28-1.85 1.94 4.06-11.31 8.08-21.8 12.15-31.7 0.27 0.04 0.55-0.05 0.73-0.28 1.78-2.25 3.98-4.6 6.69-7.17 2.68-2.54 5.84-4.9 8.9-7.18 5.54-4.138 11.28-8.423 14.95-14.232 0.22-0.355 0.12-0.828-0.24-1.051zm-76.72 193.36c0.54 10.29 1.1 20.95 2.72 31.12 0.06 0.41-0.22 0.8-0.64 0.87-0.04 0.01-0.08 0.01-0.12 0.01-0.19 0-0.36-0.07-0.5-0.19 0.23 1.68 0.46 3.36 0.66 5.03 0.05 0.42-0.24 0.8-0.66 0.85-0.03 0-0.06 0.01-0.1 0.01-0.37 0-0.7-0.29-0.75-0.68-2.25-18.72-6.31-38.08-12.38-58.67-0.15-0.12-0.35-0.33-0.51-1.08-1.94-3.81-5.71-6.23-9.35-8.57-0.89-0.58-1.77-1.15-2.63-1.73-3.98-2.74-7.93-6.18-12.41-10.81-4.92-5.1-7.4-8.19-7.37-9.17 0.01-0.42 0.38-0.73 0.78-0.74 0.4 0.01 0.72 0.33 0.74 0.72 0.27 0.85 3.79 4.86 6.94 8.12 4.41 4.57 8.28 7.95 12.19 10.62 0.84 0.58 1.71 1.14 2.59 1.7 2.64 1.71 5.35 3.45 7.47 5.75-3.36-10.92-7.29-22.19-11.79-33.9-0.02-0.03-0.05-0.06-0.07-0.1h-0.01c-0.27-0.09-0.46-0.32-0.51-0.58-2.68-2.67-8.03-3.94-12.83-5.07-3.35-0.79-6.51-1.54-8.78-2.7-2.57-1.32-5.08-3.24-7.26-5.55-0.81-0.85-1.42-1.7-1.86-2.57-0.05-0.09-0.14-0.21-0.22-0.34-0.36-0.53-0.71-1.03-0.38-1.55 0.18-0.29 0.5-0.44 0.87-0.39 0.41 0.06 0.71 0.45 0.65 0.86 0 0.02 0 0.03-0.01 0.04 0.04 0.06 0.09 0.12 0.13 0.18 0.13 0.19 0.25 0.38 0.32 0.51 0.38 0.75 0.89 1.46 1.6 2.22 2.06 2.18 4.43 4 6.86 5.24 2.11 1.07 5.18 1.8 8.43 2.56 4.3 1.02 8.7 2.06 11.77 4.04-0.13-0.36-0.22-0.66-0.3-0.92-3.45-8.8-7.24-17.85-11.35-27.18-2.19-3.51-6.77-5.26-11.2-6.95-2.99-1.14-6.09-2.32-8.42-4.05-2.8-2.08-4.91-3.92-6.66-5.79-0.57-0.63-1.15-1.31-1.76-2.08-0.12-0.14-0.28-0.42-0.44-0.68-0.03-0.06-0.07-0.12-0.11-0.18-0.19-0.11-0.33-0.3-0.37-0.53-0.06-0.37 0.14-0.82 0.49-0.94 0.64-0.24 0.94 0.28 1.3 0.87 0.12 0.2 0.24 0.41 0.32 0.52 0.59 0.74 1.14 1.39 1.69 1.98 1.68 1.8 3.73 3.59 6.45 5.61 2.16 1.6 5.02 2.69 8.05 3.85 3.13 1.19 6.32 2.41 8.83 4.27-1.38-3.08-2.79-6.19-4.25-9.34-3.3-7.15-6.7-14.25-10.04-21.08-0.14-0.03-0.28-0.09-0.39-0.2l-0.29-0.27c-1.81-1.73-5.58-5.32-7.62-5.37-4.77-0.11-8.85-0.65-12.47-1.66-5.8-1.62-11.32-4.79-15.97-9.19-0.67-0.63-1.26-1.46-1.84-2.26-0.62-0.87-1.27-1.77-1.91-2.27-0.33-0.26-0.39-0.74-0.14-1.07 0.27-0.33 0.74-0.39 1.08-0.13 0.82 0.64 1.52 1.63 2.21 2.58 0.53 0.74 1.09 1.52 1.64 2.05 4.48 4.22 9.78 7.27 15.34 8.82 3.5 0.98 7.45 1.5 12.09 1.61 1.86 0.04 4.23 1.78 6.54 3.84-5.05-10.25-9.91-19.8-14.06-27.88-0.22-0.44-0.69-1.29-1.28-2.35-6.05-10.89-6.28-12.17-5.36-12.85 0.33-0.25 0.81-0.18 1.06 0.16 0.18 0.24 0.19 0.54 0.07 0.79 0.15 1.42 4.07 8.47 5.56 11.16 0.6 1.09 1.08 1.95 1.31 2.39 2.96 5.77 6.29 12.29 9.78 19.27-0.13-1.63-0.12-3.09-0.1-4.39 0-0.56 0.01-1.11 0-1.64-0.07-5.63 0.68-11.28 1.41-16.74 0.73-5.47 1.48-11.12 1.39-16.72 0-0.42 0.33-0.76 0.75-0.77h0.02c0.41 0 0.75 0.33 0.76 0.75 0.09 5.71-0.67 11.42-1.41 16.94-0.72 5.41-1.46 11-1.39 16.52 0 0.54 0 1.1-0.01 1.68-0.03 2.6-0.06 5.55 1.01 9.23 4.47 9.02 9.14 18.66 13.65 28.41 0.28 0.61 0.55 1.21 0.83 1.82-0.09-2.84-0.01-5.85 0.24-8.97 0.36-4.48 1.13-9.05 1.89-13.46 1.7-9.99 3.45-20.32 0.46-30.27-0.12-0.41 0.11-0.83 0.51-0.95 0.41-0.12 0.83 0.11 0.95 0.51 3.09 10.29 1.3 20.8-0.42 30.97-0.75 4.38-1.52 8.91-1.87 13.32-0.33 4.07-0.36 7.93-0.09 11.47 0.03 0.1 0.45 1.17 0.78 2.02 0.78 2.02 1.1 2.84 1.13 3.25 0.55 1.23 1.09 2.45 1.63 3.66 0.03 0.06 0.06 0.11 0.1 0.17 0.05 0.08 0.08 0.17 0.09 0.27 3.33 7.55 6.44 14.92 9.34 22.12-0.07-2.7 0.05-5.26 0.18-7.38 0.27-4.58 1.03-9.29 1.75-13.85 1.33-8.32 2.71-16.93 1.28-25.16-0.08-0.42 0.2-0.81 0.61-0.88 0.43-0.08 0.82 0.2 0.89 0.62 1.47 8.48 0.08 17.22-1.27 25.66-0.72 4.52-1.47 9.2-1.74 13.7-0.2 3.23-0.36 7.48 0.11 11.71 0.01 0.07 0.05 0.22 0.1 0.42 0.51 1.29 1.02 2.58 1.51 3.86 0.17 0.24 0.32 0.48 0.46 0.74 0.11 0.19 0.12 0.41 0.06 0.61 3.97 10.41 7.49 20.48 10.57 30.26 0.03-2.4 0.17-4.78 0.32-7.05 0.69-10.16 0.92-20.02-3.73-28.98-0.19-0.38-0.05-0.84 0.33-1.03 0.37-0.2 0.83-0.05 1.02 0.32 4.83 9.32 4.6 19.41 3.9 29.79-0.24 3.58-0.44 7.41-0.24 11.14 0.02 0.5 0.06 0.94 0.1 1.33 4.89 16.27 8.54 31.79 11.04 46.81-0.79-7.45-1.19-15-1.58-22.37-0.33-6.31-0.67-12.82-1.25-19.12-0.32-3.46-0.65-6.92-0.97-10.38-4.01-42.96-8.16-87.38-2.85-131.55 0.29-2.44 0.61-4.9 0.95-7.36-0.01-0.02-0.02-0.04-0.03-0.07-0.67-2.01-1.71-5.43-2.24-7.24-1.27-4.3-2.4-8.98-3.46-14.289-3.06-15.281-4.09-30.149-5.02-46.609-0.03-0.418 0.29-0.782 0.72-0.805 0.41-0.031 0.78 0.297 0.8 0.719 0.93 16.402 1.96 31.214 4.99 46.394 1.06 5.266 2.18 9.9 3.43 14.16 0.37 1.24 0.85 2.84 1.31 4.32 1.74-11.968 4-24.179 6.77-36.542-0.15-0.114-0.27-0.274-0.3-0.477-0.27-1.441-0.46-2.875-0.67-4.578-0.61-5.035-0.91-9.703-0.92-14.273-0.02-14.719 2.37-28.485 7.32-42.086 0.14-0.399 0.59-0.602 0.98-0.457 0.39 0.144 0.6 0.582 0.45 0.976-4.88 13.434-7.25 27.027-7.22 41.563 0 4.507 0.3 9.121 0.9 14.093 0.08 0.653 0.16 1.254 0.24 1.84 1.17-5.035 2.4-10.086 3.73-15.152 2.1-7.973 4.07-14.473 6.22-20.453 0.6-1.68 1.41-3.883 2.38-6.02 0.17-0.386 0.62-0.558 1-0.383 0.39 0.172 0.55 0.625 0.38 1.008-0.94 2.09-1.74 4.254-2.33 5.91-2.13 5.938-4.09 12.395-6.18 20.325-5.87 22.394-10.14 44.492-12.69 65.666-5.29 44.01-1.15 88.35 2.86 131.23 0.32 3.46 0.65 6.92 0.96 10.38 0.59 6.33 0.93 12.86 1.26 19.18" fill="#191e40"/></g>
  <path d="m200.98 1815.3c-0.24-9.8 2.97-22.3 13.47-26.8 46.88-19.8 43.6 97.5 0.24 58.7-5.94-5.3-13.32-13.2-13.71-31.9zm-190.78-89.2c-5.4684-10.3-1.0934-34.9 2.422-40 7.695-11 20.469-14 31.367-8.1 22.227 12.1 25.313 61.3 1.446 69.5-12.969 4.4-29.766-11.2-35.235-21.4zm266.84-446.4s-21.05-40.5 0.35-56c15.08-10.8 43.67-5.1 53.67 19.1 19.5 47-32.14 82-54.02 36.9zm4720.7 4760.9c-7-0.9-15.7-5.3-18.1-16.3-10.7-48.9 73.2-33 42 6-4.3 5.3-10.5 11.9-23.9 10.3zm-78.7 180.4c-7.7 4.3-25.1-2.7-28.4-6.7-7.3-8.9-8.5-21.9-3.4-32.2 10.3-20.8 45.9-18.6 49.9 6.1 2.2 13.3-10.3 28.4-18.1 32.8zm-299.3-313.6s-30.8 16.6-40.1-6.4c-6.6-16.1-0.4-44 17.7-51.4 35.3-14.3 56.4 40.8 22.4 57.8zm0 0" fill="none" stroke="#c82e2a" stroke-linecap="round" stroke-linejoin="round" stroke-miterlimit="10" stroke-width="15.24" transform="matrix(.1 0 0 -.1 0 622.99)"/>
  <g id="change3_1"><path d="m419.88 461.41c4.69-9.08-33.59-16.01-37.06-15.99-30.96 0.17-55.5 20.31-82.03 33.29-1.75 0.85-26.64 11.02-26.68 11.15-1.21 3.23 37.2 33.76 43.27 37.87 44.47 30.11 97.95 30.83 134.49-12.35m9.47-116.65c-13.28 7.02-11.3-44.34-10.28-48.55 8.15-33.71 31.33-62.5 50.77-90.38 4.16-5.96 8.13-15.05 13.74-19.8 0.27-0.23 0.04 6.63 0.04 7.46 0 4.45 0.7 8.91 1.46 13.27 2.3 13.23 6.63 25.43 11.56 37.87 21.31 53.81 21.3 83.15-10.94 131.51" fill="#808fa2" fill-rule="evenodd"/></g>
  <g id="change2_3"><path d="m439.15 486.14c-4.13 1.16-8.2 2.62-12.19 4.15 0.08-0.07 0.14-0.17 0.18-0.27 0.14-0.4-0.06-0.84-0.46-0.98-0.54-0.2-1.2-0.23-1.9-0.25-0.91-0.04-1.94-0.09-2.76-0.52-7.84-4.14-14.03-11.2-20-18.04-7.91-9.04-16.09-18.39-28.32-21.36-0.41-0.1-0.82 0.15-0.92 0.56s0.15 0.82 0.56 0.92c11.77 2.86 19.78 12.02 27.53 20.88 6.07 6.95 12.34 14.12 20.43 18.39 1.13 0.59 2.4 0.65 3.42 0.69 0.58 0.02 1.12 0.04 1.44 0.16 0.07 0.03 0.15 0.04 0.22 0.05-1.78 0.69-3.56 1.39-5.31 2.09-4.46 1.77-9.08 3.6-13.71 5.12-0.37 0.13-0.74 0.24-1.11 0.36-7.91-1.87-14.83-10.22-20.39-16.93-1.35-1.63-2.63-3.17-3.86-4.55-8.39-9.45-18.8-15.64-30.11-17.9-0.41-0.08-0.81 0.19-0.9 0.6-0.08 0.41 0.19 0.81 0.6 0.9 10.98 2.19 21.11 8.21 29.27 17.41 1.21 1.36 2.48 2.89 3.82 4.51 5.2 6.27 11.55 13.93 18.98 16.76-4.81 1.41-9.77 2.57-14.9 3.48-0.24-0.18-0.78-0.39-2.08-0.87-3.11-1.16-10.39-3.87-12.57-5.35-4.03-2.74-7.87-5.99-11.58-9.13-9.39-7.97-19.1-16.21-32.8-16.75-0.42 0.01-0.78 0.32-0.8 0.73-0.02 0.43 0.31 0.78 0.73 0.8 13.18 0.51 22.27 8.22 31.89 16.38 3.74 3.17 7.6 6.45 11.7 9.23 2.28 1.55 9.14 4.12 12.66 5.43-8.05 1.25-16.5 1.88-25.4 1.89-0.06-0.05-0.14-0.09-0.23-0.14-0.17-0.07-0.34-0.08-0.5-0.04-0.46-0.11-1.24-0.34-1.58-0.48-1.03-0.43-2.12-0.99-3.33-1.7-2.74-1.6-5.5-3.61-8.97-6.53-1.22-1.03-2.47-2.11-3.75-3.23-7.56-6.59-16.13-14.06-26.16-15.1-0.42-0.05-0.79 0.26-0.84 0.67-0.04 0.42 0.26 0.8 0.68 0.84 9.56 0.99 17.93 8.3 25.32 14.74 1.29 1.12 2.54 2.21 3.77 3.25 3.53 2.97 6.37 5.03 9.18 6.68 0.63 0.37 1.24 0.7 1.81 0.99-6.39-0.14-13.02-0.58-19.9-1.33v-0.01c-0.13-0.33-0.47-0.52-0.8-0.47-0.25-0.07-0.76-0.24-0.92-0.3-0.97-0.39-1.92-0.9-2.74-1.36-2.37-1.33-4.82-2.85-7.94-4.95-8.95-6.01-16.58-10.67-26.41-11.59-0.43-0.04-0.79 0.27-0.83 0.69-0.04 0.41 0.27 0.78 0.69 0.82 9.47 0.89 16.93 5.46 25.7 11.34 3.12 2.1 5.67 3.69 8.05 5.02 0.14 0.08 0.29 0.16 0.44 0.25-9.34-1.15-21.05-2.82-32.63-5.61-5.1-1.23-10.1-2.64-14.83-4.2-0.77-0.26-1.4-0.36-1.84-0.41-0.24-0.31-0.7-0.39-1.04-0.16-0.2 0.14-0.66 0.47-0.51 1.03s0.7 0.6 1 0.61c0.35 0.03 1.01 0.08 1.92 0.38 4.77 1.57 9.8 2.99 14.95 4.23 12.62 3.05 25.39 4.76 35.1 5.92 2.11 0.25 4.19 0.47 6.26 0.67-2.04 0.71-3.96 1.73-5.84 2.73-1.8 0.96-3.66 1.95-5.57 2.63-5.49 1.95-11.54 1.5-16.74 0.8-3.5-0.47-6.46-1.07-9.05-1.82l-0.13-0.04c-1.35-0.37-1.78-0.53-1.93-0.58-0.11-0.08-0.25-0.13-0.39-0.15-0.42-0.02-0.78 0.29-0.82 0.72-0.04 0.7 0.33 0.81 2.73 1.48l0.11 0.03c2.67 0.78 5.7 1.39 9.28 1.87 5.38 0.72 11.65 1.18 17.45-0.88 2.02-0.72 3.93-1.73 5.77-2.72 3.37-1.78 6.54-3.48 10.29-3.51 0.14 0 0.27-0.04 0.39-0.11 7.38 0.53 14.46 0.68 21.27 0.46-5.88 2.15-9.72 6.13-13.75 10.29-2.69 2.78-5.47 5.65-9.03 8.19-2.92 2.07-5.96 3.75-9.03 5-0.13 0.04-0.28 0.11-0.46 0.19-1.67 0.75-2.22 0.78-2.39 0.69-0.36-0.22-0.83-0.09-1.04 0.27-0.22 0.36-0.1 0.82 0.27 1.04 1.04 0.62 2.69-0.12 3.78-0.6 0.16-0.07 0.3-0.14 0.41-0.18 3.18-1.28 6.33-3.03 9.34-5.17 3.68-2.62 6.51-5.54 9.25-8.38 5.12-5.29 9.54-9.86 18.04-11.14 0.29-0.04 0.52-0.24 0.61-0.5 8.06-0.55 15.74-1.64 23.08-3.29-0.8 1.17-1.01 2.34-1.24 3.55-0.14 0.72-0.27 1.46-0.54 2.28-1.25 3.9-2.84 8.35-5.86 11.82-3.45 3.96-8.01 6.07-12.83 8.3-1.35 0.62-2.74 1.27-4.08 1.95-4.62 2.33-8.57 5.15-12.73 8.13l-1.39 0.99c-0.34 0.24-0.42 0.72-0.18 1.06 0.16 0.21 0.39 0.32 0.63 0.32 0.15 0 0.3-0.04 0.44-0.14l1.38-0.99c4.12-2.95 8.02-5.73 12.53-8.02 1.32-0.66 2.7-1.3 4.04-1.92 4.76-2.2 9.68-4.48 13.34-8.68 3.21-3.69 4.86-8.31 6.16-12.35 0.3-0.92 0.45-1.74 0.59-2.47 0.29-1.58 0.5-2.72 1.9-4 0.12-0.11 0.2-0.24 0.23-0.39 3.37-0.82 6.67-1.76 9.91-2.83 4.68-1.53 9.32-3.38 13.81-5.16 5.81-2.31 11.82-4.7 17.93-6.41 0.4-0.12 0.64-0.54 0.52-0.94-0.11-0.41-0.54-0.65-0.94-0.53zm-16.83 9.89c-6.55 5.18-8.61 12.87-10.6 20.31-1.74 6.49-3.53 13.19-8.3 18.21-2.84 2.98-6.38 5.46-10.26 7.17-0.11 0.05-0.26 0.12-0.44 0.21-1.95 0.94-2.66 1.08-2.9 1.02-0.36-0.18-0.81-0.06-1.01 0.3-0.21 0.36-0.08 0.83 0.28 1.04 0.23 0.13 0.5 0.19 0.8 0.19 0.84 0 1.98-0.45 3.49-1.18 0.17-0.08 0.3-0.14 0.39-0.18 4.06-1.8 7.78-4.4 10.75-7.52 5.04-5.3 6.88-12.19 8.67-18.86 2.01-7.54 3.92-14.65 10.08-19.52 0.32-0.26 0.38-0.74 0.12-1.07s-0.74-0.38-1.07-0.12zm117.73-126.92c-0.51-0.55-0.96-0.16-1.6 0.39-0.39 0.34-0.91 0.8-1.18 1.01-1.21 0.95-2.43 1.91-3.67 2.83-3.8 2.82-7.29 5.17-10.66 7.19-9.33 5.59-20.49 9.61-33.19 11.95 0.02-7.46 0.22-15.05 0.62-22.72 0.47 0.15 1.36 0 3.32-0.47l0.1-0.03c3.75-0.83 7.43-2 10.95-3.47 14.83-6.21 25.72-16.11 30.69-27.86 0.16-0.39-0.02-0.84-0.4-1-0.39-0.16-0.84 0.02-1 0.41-4.81 11.38-15.42 20.99-29.88 27.04-3.43 1.44-7.03 2.58-10.69 3.39l-0.13 0.03c-1.66 0.4-2.26 0.48-2.45 0.49-0.14-0.06-0.29-0.07-0.43-0.04 0.49-8.89 1.24-17.9 2.24-26.96 0.11-0.06 0.22-0.14 0.3-0.25 0.31-0.25 1.74-0.71 2.35-0.92 0.59-0.19 0.93-0.3 1.13-0.4 3.16-1.51 6.28-3.21 9.28-5.07 11.48-7.11 19.01-14.67 23.04-23.1 0.18-0.38 0.02-0.84-0.36-1.02s-0.84-0.01-1.02 0.36c-3.89 8.17-11.24 15.52-22.47 22.47-2.95 1.82-6.02 3.5-9.13 4.99-0.12 0.06-0.56 0.2-0.94 0.33-0.85 0.28-1.49 0.5-1.97 0.7 0.9-7.88 2-15.8 3.28-23.73 0-0.01 0.01-0.01 0.01-0.01 1.77-1.43 22.06-28.22 23.94-36.9 0.09-0.41-0.17-0.81-0.58-0.9s-0.82 0.17-0.91 0.58c-1.54 7.14-17.04 28.37-22 34.45 0.65-3.88 1.34-7.76 2.08-11.64 2.64-13.89 5.76-27.25 9.26-39.71 1.26-4.48 2.65-9.09 4.24-14.07 0.44-1.39 0.89-2.78 1.35-4.17 0.07-0.23 0.33-0.66 0.54-1.01 0.57-0.96 0.94-1.6 0.51-2.16-0.1-0.15-0.42-0.47-1.03-0.31-0.41 0.11-0.65 0.52-0.54 0.93 0.01 0.07 0.04 0.13 0.08 0.19-0.11 0.19-0.24 0.4-0.33 0.57-0.29 0.48-0.55 0.93-0.68 1.31-0.46 1.4-0.91 2.79-1.35 4.18-1.6 5.01-2.99 9.63-4.25 14.13-3.52 12.5-6.64 25.91-9.3 39.84l-0.54 2.91c-2.19-3.15-5.42-9.5-4.25-25.76 0.03-0.42-0.29-0.79-0.71-0.81-0.41-0.04-0.78 0.28-0.81 0.7-1.36 18.92 3.15 24.96 5.32 27.86 0.02 0.02 0.04 0.05 0.07 0.07-2.29 12.67-4.1 25.35-5.42 37.89-0.02-0.04-0.06-0.07-0.08-0.1-0.89-1.02-1.62-1.89-2.29-2.72-2.15-2.71-4.06-5.45-5.66-8.17-5.35-9.03-8.28-19.68-8.49-30.78-0.01-0.42-0.34-0.71-0.78-0.75-0.42 0.01-0.76 0.36-0.75 0.78 0.22 11.36 3.23 22.27 8.71 31.53 1.64 2.77 3.58 5.58 5.78 8.34 0.69 0.86 1.43 1.74 2.33 2.77 0.11 0.13 0.26 0.34 0.41 0.55 0.22 0.31 0.41 0.57 0.6 0.77-0.93 9.25-1.6 18.42-2 27.48-0.11-0.09-0.21-0.17-0.29-0.24l-0.96-0.86c-0.7-0.62-1.4-1.25-2.09-1.9-2.59-2.44-5.17-5.13-7.66-7.99-7.97-9.18-11.45-21.77-13.8-32.88-0.09-0.41-0.5-0.68-0.91-0.59s-0.67 0.5-0.58 0.91c2.39 11.29 5.94 24.11 14.14 33.56 2.52 2.89 5.13 5.62 7.77 8.1 0.7 0.65 1.41 1.29 2.12 1.93l0.95 0.84c0.16 0.15 0.4 0.34 0.63 0.51 0.15 0.12 0.3 0.23 0.4 0.31 0.05 0.1 0.12 0.18 0.2 0.25-0.23 5.82-0.35 11.59-0.35 17.3-0.19 0.03-0.39 0.06-0.58 0.1-0.41 0.07-0.69 0.46-0.62 0.87 0.07 0.42 0.47 0.71 0.88 0.63 0.11-0.02 0.21-0.04 0.32-0.06 0.02 9.48 0.36 18.76 1.02 27.8 0.02 0.4 0.36 0.71 0.75 0.71 0.02 0 0.04 0 0.06-0.01 0.42-0.03 0.74-0.39 0.71-0.81-0.66-9.08-1-18.43-1.02-27.95 13-2.38 24.41-6.48 33.97-12.2 3.42-2.05 6.95-4.43 10.79-7.28 1.25-0.93 2.48-1.89 3.7-2.85 0.29-0.23 0.83-0.7 1.24-1.06 0.11-0.09 0.21-0.18 0.3-0.25 0.05-0.03 0.11-0.08 0.16-0.13 0.61-0.58 0.22-1.07 0.14-1.16zm-53.89 38.22c0.32 0.27 0.36 0.75 0.09 1.07-0.15 0.18-0.36 0.27-0.58 0.27-0.17 0-0.35-0.06-0.49-0.18-10.02-8.53-20.04-18.31-25.54-32.14-1.7-4.28-3.03-8.55-3.95-12.72-0.3-1.38-0.55-2.77-0.74-4.13-0.34-2.57-0.09-2.77 0.11-2.94l0.94 1.2-0.46-0.61 0.76-0.03c0.01 0.13 0.14 2.02 0.16 2.19 0.18 1.3 0.42 2.65 0.72 3.99 0.91 4.09 2.21 8.29 3.88 12.49 5.37 13.51 15.24 23.14 25.1 31.54" fill="#191e40"/></g>
  <g clip-path="url(#clip2)" id="change2_1">
   <path d="m474.38 387.6s15.39-15.82 26.95-15.86c11.9-0.04 18.65 10.94 19.59 21.57 0.3 3.4 0.14 6.83-0.61 10.17-0.27 1.22-2.24 3.28-1.04 3.59 0.07 0.02 0.09-0.09 0.13-0.14 4.84-6.75 16.08-9.81 23.07-4.73 8.25 5.97 8.58 17.86 4.69 26.37-0.45 0.95-6.17 8.11-6.04 8.55 0.05 0.17 1.65-0.22 1.77-0.23 7.58-1.01 14.91 4.23 16.86 11.45 2.26 8.32-0.1 18.54-6.47 24.45-1.28 1.19-8.6 4.31-8.94 5.62-0.22 0.84 7.05 7.11 7.81 8.24 5.56 8.28 4.32 19.48-4.35 25.17-15.24 10.02-29.91-2.52-34.01-1.35-1.03 0.3-1.52 17.3-15.46 20.36-6.79 1.49-14.76-0.51-19.98-5.15-0.89-0.79-5.33-8.61-5.67-8.63-1.45-0.1-11.14 14.26-27.82 9.49-8.48-2.43-16.65-8.66-18.74-17.58-1.03-4.38-1.25-9.48 0.55-13.69 0.05-0.13-4.88 4.59-8.3 5.55-7.19 2.01-14.6-3-17.91-9.11-4.65-8.58-4.98-18.73-0.98-27.59 1.49-3.3 3.55-6.28 6.13-8.83 0.28-0.29 2.65-3.01 2.56-3.01-9.94 0.47-13.24-10.86-12.85-18.94 0.54-11.35 4.79-29.43 17.9-32.48 4-0.93 8.69-0.52 12.3 1.52 0.06 0.03 0.47 0.33 0.57 0.27 0.08-0.04-0.49-2.16-0.51-2.32-0.69-5.54 1.48-10.95 5.54-14.69 6.47-5.94 15.35-6.93 21.27 0.11 0.65 0.76 1.84 3.66 2.73 3.98 0.11 0.04 1.19-10.71 8.8-10.62 6.94 0.07 7.41 4.81 10.46 8.49" fill="#191e40" fill-rule="evenodd"/>
  </g>
  <path d="m4338.6 2197.2c-2.9 22.2 39.1 42.5 60.4 46.5 16.8 3.2 34.1-2.1 50.7 1.5 21.7 4.7 40.1 20.9 61.8 27 25.1 7 50.2 0.3 74.9 5.4 15.9 3.3 28.8 15.7 44.6 20.3m734.8-383.3s7 9.8 8.8 15.5c4.9 15.2 7.1 31.8 6.1 47.7-1.2 19.9-7.3 42-18.9 58.5-5 7.3-17.2 11.8-20.7 19.4-10.2 21.4-0.1 38.9-21.9 59m-140.4-955.9c-0.2 0 0.9-0.9 1.1-1 10.6-5.8 25.6-3.8 37-2.5 23.9 2.7 47.1 9.7 68.8 20.1 37.9 18.2 80 47.3 96.6 87.6 4.2 10.1 1.7 24.7 6.1 33.5 0.8 1.5 7.9-2.4 9-2.7 19-5 33 8.1 38.7 25.2m-702.1-215.9c17.4-46.4 111.8-53 149.6-43.9 10.5 2.5 34.4 20.7 44.3 18.7 27-5.6 36-30.1 75.7-28.3m-700.6 180.8c-3 1.9 0.7-7.1 1.3-10.6 1.6-8.4 4-16.6 7-24.6 8.7-23.5 21.4-45.4 37.3-64.7 24.2-29.1 54.6-54.9 92.6-62.8 14-3 32.4 3.5 45.2-0.7 11.1-3.5 11-27 48.7-30.2m-408.7 633.1c3.1-1.4-4.5-5.4-6.6-8.2-5-6.6-9.6-13.5-13.8-20.7-12.8-22.3-21.1-46.5-25.8-71.7-4.3-23.2-5.8-47.8-0.5-70.9 2.9-12.4 13.5-25.1 14-37.8 0.6-12.6-12.8-25.7-15.1-38.4-7-37.2 14.7-67.7 40.9-91.6m175.1 790.3c0.1 0-0.5 0-0.6 0.1-5.4 0.9-11.3-0.4-16.6-1.6-10-2.4-19.8-5.6-29.2-9.8-32.6-14.4-61.2-36.7-82.6-65.2-16.3-21.6-28.4-47.2-30.5-74.6-0.7-9.2 7.5-32.4 3.5-40.1-1.8-3.5-15.5-4.3-19-5.6-12.1-4.5-22.7-12.1-31.2-21.7-39.5-44.8-37-137 14.7-173.6m1238.1 122.5s44.9-39.8 55-57.1c38.9-66.4 54.7-143.4 26.8-216.6m-374.9-397.1c6 3.7 40.5 5.4 51.9 10.1 58.4 24.6 112.4 61.6 153.9 109.7 21.2 24.5 39.4 52.9 48.2 84.4 12.8 45.8-9.1 65.7-20.9 103-2.1 6.9 12.8 7.4 17.6 12.7 10 11.2 17.7 24.7 24.5 37.9 20.6 40 27.4 88.6 17.7 132.6-7 31.6-24.3 62.1-50.6 81.6-11.4 8.5-24.3 15.6-37.7 20.2-1.3 0.4-12.6 2.7-12.4 4.7 0.7 7.3 27.9 29.7 32.6 37.8 18.6 31.3 26.9 69 21.2 105.2-6.6 41.9-31.4 78.8-65.1 103.9-6.5 4.9-21.4 9.4-25.8 16-3.6 5.4-1.1 17.2-2.6 23.6-7.9 33-30 64.2-56.1 85.3-20.3 16.2-85.7 38.4-94 47.8-8.4 9.7-1.9 35-3.2 46.9-3 28.3-14.9 54.4-37.3 72.5-41.8 33.5-101.4 34-150.3 18.6m42.4-193.4c-3.6-2.4 4.1 8.1 7.5 11 5.3 4.7 11.7 8.1 18.3 10.5 21.2 7.7 46.8 5 65.9-7 58.7-37 23.4-90.8 36-108.8 7.5-10.7 55.1-24.5 71.1-44.5 27.3-34 11.8-65.5 21.3-101.4 5.7-21.3 43.9-42.4 53-76.6 13-48.3-12.2-86.4-15-132.7-2.4-37.9 13.4-74.4 11.8-112.6-1.6-40.8-52.5-203.8-82.6-231.9-30.5-28.5-74.7-30.9-103.8-55.1-36.1-30-10.9-68-96.6-90.7-30-7.9-61.6-8.4-91.3 0.9-5.5 1.7-33.7 22.6-35.9 22.2-10.6-2-38.9-43.8-48.8-51.8-48.7-39.4-121.9-66.2-183.5-43.4-58.4 21.6-36.5 44.5-59.8 65.2-8.1 7.2-39.2 5.2-50.5 10.3-35.5 15.8-62.6 43.8-83.2 76.2-28.1 44.2-25.9 96.1-45.3 129.8-8.1 14.1-76 7.3-97.5 70.5-28.9 85.3 40 115.3 39.9 155.6 0 22.5-32.4 69.9-31.1 120 1.8 65.6 20 142.7 64.9 192.8 9.2 10.3 25.6 14.2 33.5 22.5 5.3 5.6-5.7 14.9-5.6 22.7 0.3 19.4 9.3 39 21.3 53.9 43.8 54.2 88.2 43 120.9 69.2 29 23.1 17.6 62.8 75.9 71.8 32.5 5.1 64.4-23.9 91-19.3 22.4 3.8 43.4 43.8 68.1 53 39.8 14.8 54.8-20.6 86.4-23.1 10.5-0.9 33.2 29.8 47.8 33.4 48.4 12.1 95.9-92.6 95.9-92.6zm-89.9-105.6s71.6 51.4 97.6 38.9c58.2-28 16.3-90.3 25.1-105.4 2.2-3.7 36 1 40.7 0.6 26.5-2.4 53.2-13.6 65.2-38.9 13.7-28.9 4.2-60.8-14.3-84.6-0.7-1-2.1-2.5-1.5-3.8 9.8-20.7 51.7-23.6 63.2-65.3 19-68.7-32.7-80.6-37.2-116.1-6.1-47.6 55.3-90.4 8.1-166.4-14.1-22.7-36.6-38.3-63.2-41.5-7.5-0.9-38.4 6.2-43 1.4-28.6-30.5 1.5-91.6-80.1-127.8-75.4-33.3-118.4 23.3-141 20-27.7-4.2-37.3-82-121.6-57.3-28.6 8.3-54.5 31.2-70.6 55.8-4 6.1-8.8 34.7-13.3 37.1-1.8 0.9-4.6-1.8-5.7-2.7-26.3-20.6-61.1-29.2-92.1-11.7-22.6 12.8-37.4 37.1-46.7 60.7-11.8 29.3 4.1 80.5-1.3 92.8-1.2 2.7-31.3 13.5-36.3 18.3-28.5 28-42 72.5-38.4 111.8 2.8 29.3 17.5 56.3 40.9 74.2 5.4 4.2 37.1 12.8 38.5 18.4 0.5 1.9-2.5 4.1-3.5 5.2-25.9 25.4-39.4 60.8-38.1 97.2 1.2 37 16.9 79 51.4 97.1 10.7 5.6 39.3 4.1 45.7 13.1 21.6 30.2 19.7 68.3 52.2 95.7 42.1 35.5 57.5-3.4 82.1 1.9 21.1 4.7 41.5 33.4 66 40.4 43.6 12.7 63.6-14.6 99.8-26.3 3.6-1.1 15.8 17.8 21.8 19.7 26.4 8.6 48.8-31.2 49.6-52.5zm-54.2-128.2c14.6 38.5 92.6 95.3 113.7 30.1 5.3-16.6 3.8-34.8-0.3-51.6-0.3-1.3-6.6-17.5-6-18 12.8-11.1 94.9 31.2 101.2-44.6 2.7-33.9-36.4-46.8-37.7-58.1-0.1-2 11.1-5.6 12.5-6.4 10.4-5.7 18.7-13.8 25.8-23.3 24.2-32.6 19.1-81.7-4.7-113.1-15.5-20.3-37.2-30.4-62.3-32.3-5.6-0.4-25.9 4.1-29.3-1.3-15.2-23.8 27.7-98.5-37.6-128.8-25.4-11.8-51.7-1.8-71.3 15.6-7.8 6.9-15.1 14.4-20.2 23.4-0.4 0.7-3.7 8.9-5 8.2-41.2-24.1-53.3-79-116.7-60.7-45.5 13-54.6 87.7-63.8 91.3-18.8 7.3-66.5-51-107.7-15.3-39.6 34.5-2.6 105.6 28.8 131.7 6.3 5.2 34.9 14.5 37.8 19.8 0.3 0.7-9.3 3.7-9.9 3.9-9.1 3.9-16.5 10.8-22.7 18.4-16.9 21-26.6 46.8-23.3 73.9 3.7 30.2 23.2 55.6 50.5 68.6 11.4 5.4 23.8 8.8 36.4 9.9 0.7 0.1 12.1 0.3 12.1 1-1.7 23.2-41.4 36.5-7.8 83.9 45 63.3 70.6 17.3 110.2 25.3 9.3 1.9 17.9 30.9 30.5 37 36.6 17.9 66.8-88.5 66.8-88.5zm1.2-95.2s0.8 11.5 1.9 13.2c10 15 36.8 46.2 58 38.4 25.5-9.3 8.7-53 1.3-69.2-0.7-1.4-13.1-25.4-14.9-24.1-2.9 2.2 28.7 16 30.5 16.3 23.3 5.1 50-4.6 52.9-31.5 4.4-41.3-43.9-35.8-60.1-56.1-0.3-0.5 6.1-4.3 6.6-4.7 6.7-5.4 11-13.6 14.5-21.3 12.2-27 12.6-67.7-19.3-81.7-27.7-12.1-57.7 7.6-74.1 29.1-1.9 2.6-11 34.1-11 34.1s-1.1-37.7-3.6-43.6c-12.1-28.8-46.3-46.1-76.4-35-39 14.5-47.3 62.7-35.1 97.8 0.8 2.6 30.7 42.4 30.7 42.4s-6.3-5.9-6.8-6.2c-15.6-9.9-40.4-21.7-59.2-19.8-22.3 2.2-26.1 29.9-20.2 47.2 7 20.5 25.5 33.3 45.6 38.3 9.9 2.4 28.6-9.2 30.4 0.8 1.3 7.9-35.7 28.8-12.7 57.4 13.6 16.9 34 15.8 51.6 6.4 5.8-3 11.1-7.1 15.6-11.8 2.4-2.7 8.2-12.1 6.1-9.1-26.2 37.4 46.8 52.2 47.7-7.3zm0 0" fill="none" stroke="#c82e2a" stroke-linecap="round" stroke-linejoin="round" stroke-miterlimit="10" stroke-width="21.34" transform="matrix(.1 0 0 -.1 0 622.99)"/>
 </g>
</svg>